ffmpeg version 4.4.2-0ubuntu0.22.04.1 Copyright (c) 2000-2021 the FFmpeg developers
  built with gcc 11 (Ubuntu 11.2.0-19ubuntu1)
  configuration: --prefix=/usr --extra-version=0ubuntu0.22.04.1 --toolchain=hardened --libdir=/usr/lib/x86_64-linux-gnu --incdir=/usr/include/x86_64-linux-gnu --arch=amd64 --enable-gpl --disable-stripping --enable-gnutls --enable-ladspa --enable-libaom --enable-libass --enable-libbluray --enable-libbs2b --enable-libcaca --enable-libcdio --enable-libcodec2 --enable-libdav1d --enable-libflite --enable-libfontconfig --enable-libfreetype --enable-libfribidi --enable-libgme --enable-libgsm --enable-libjack --enable-libmp3lame --enable-libmysofa --enable-libopenjpeg --enable-libopenmpt --enable-libopus --enable-libpulse --enable-librabbitmq --enable-librubberband --enable-libshine --enable-libsnappy --enable-libsoxr --enable-libspeex --enable-libsrt --enable-libssh --enable-libtheora --enable-libtwolame --enable-libvidstab --enable-libvorbis --enable-libvpx --enable-libwebp --enable-libx265 --enable-libxml2 --enable-libxvid --enable-libzimg --enable-libzmq --enable-libzvbi --enable-lv2 --enable-omx --enable-openal --enable-opencl --enable-opengl --enable-sdl2 --enable-pocketsphinx --enable-librsvg --enable-libmfx --enable-libdc1394 --enable-libdrm --enable-libiec61883 --enable-chromaprint --enable-frei0r --enable-libx264 --enable-shared
  libavutil      56. 70.100 / 56. 70.100
  libavcodec     58.134.100 / 58.134.100
  libavformat    58. 76.100 / 58. 76.100
  libavdevice    58. 13.100 / 58. 13.100
  libavfilter     7.110.100 /  7.110.100
  libswscale      5.  9.100 /  5.  9.100
  libswresample   3.  9.100 /  3.  9.100
  libpostproc    55.  9.100 / 55.  9.100
Input #0, mov,mp4,m4a,3gp,3g2,mj2, from '/home/allen_kunn16/programs/bad-apple/assets/video.mp4':
  Metadata:
    major_brand     : mp42
    minor_version   : 0
    compatible_brands: isommp42
    creation_time   : 2019-12-01T04:55:14.000000Z
  Duration: 00:03:39.08, start: 0.000000, bitrate: 285 kb/s
  Stream #0:0(und): Video: h264 (Main) (avc1 / 0x31637661), yuv420p, 480x360 [SAR 1:1 DAR 4:3], 153 kb/s, 30 fps, 30 tbr, 15360 tbn, 60 tbc (default)
    Metadata:
      creation_time   : 2019-12-01T04:55:14.000000Z
      handler_name    : ISO Media file produced by Google Inc. Created on: 11/30/2019.
      vendor_id       : [0][0][0][0]
  Stream #0:1(und): Audio: aac (LC) (mp4a / 0x6134706D), 44100 Hz, stereo, fltp, 127 kb/s (default)
    Metadata:
      creation_time   : 2019-12-01T04:55:14.000000Z
      handler_name    : ISO Media file produced by Google Inc. Created on: 11/30/2019.
      vendor_id       : [0][0][0][0]
Stream mapping:
  Stream #0:0 -> #0:0 (h264 (native) -> mjpeg (native))
Press [q] to stop, [?] for help
[swscaler @ 0x561421655780] deprecated pixel format used, make sure you did set range correctly
Output #0, rawvideo, to 'pipe:1':
  Metadata:
    major_brand     : mp42
    minor_version   : 0
    compatible_brands: isommp42
    encoder         : Lavf58.76.100
  Stream #0:0(und): Video: mjpeg, yuvj420p(pc, progressive), 51x38 [SAR 152:153 DAR 4:3], q=2-31, 200 kb/s, 30 fps, 30 tbn (default)
    Metadata:
      creation_time   : 2019-12-01T04:55:14.000000Z
      handler_name    : ISO Media file produced by Google Inc. Created on: 11/30/2019.
      vendor_id       : [0][0][0][0]
      encoder         : Lavc58.134.100 mjpeg
    Side data:
      cpb: bitrate max/min/avg: 0/0/200000 buffer size: 0 vbv_delay: N/A
frame=    1 fps=0.0 q=1.6 size=       0kB time=00:00:00.03 bitrate=  59.5kbits/s speed=13.5x    frame= 1822 fps=0.0 q=1.6 size=    1511kB time=00:01:00.73 bitrate= 203.8kbits/s speed= 121x    frame= 3623 fps=3612 q=2.6 size=    3074kB time=00:02:00.76 bitrate= 208.5kbits/s speed= 120x    frame= 5442 fps=3621 q=1.8 size=    4542kB time=00:03:01.40 bitrate= 205.1kbits/s speed= 121x    frame= 6572 fps=3620 q=1.6 Lsize=    5440kB time=00:03:39.06 bitrate= 203.4kbits/s speed= 121x    
video:5440kB audio:0kB subtitle:0kB other streams:0kB global headers:0kB muxing overhead: 0.000000%
